#!OML:ASF F:\VICON\USERDATA\INSTALL\rory3\rory3.ASF
:FULLY-SPECIFIED
:DEGREES
124
root 0.605740315877261 17.827976294561065 41.917355817854585 2.0447082317559757 1.169802443818607 0.42569132702683965
lfemur -11.273190926049715 1.1104037436032184 -20.853274507349095
ltibia 63.82280454598862
lfoot 4.292962837820621 -10.042667286338098
ltoes -9.064211646431373
rfemur -25.395825327981605 3.1454576779025434 27.208648916707514
rtibia 52.49053294576485
rfoot -0.683628257690787 -4.33837117299092
rtoes -3.833114903274514
lowerback 13.013169236182675 -0.5867266065920796 -0.04367300015040598
upperback -0.6065170498975205 0.047108226879333914 1.7643487585455109
thorax -8.320241343365154 0.47763520901712775 1.4722480077913431
lowerneck -18.935421014794624 -3.59475176230825 -2.3499249110695954
upperneck 13.99132425242745 -4.829119741658172 2.554969428412071
head 7.504114764398179 -2.1970544895737647 0.7633234859235446
lclavicle 3.0724827264545893e-16 -4.3067221206564905e-16
lhumerus -43.800273237333485 -14.487252318359818 98.4983519087904
lradius 110.21121814303322
lwrist 32.37420521935445
lhand -25.60512065925137 3.171074129050433
lfingers 7.125020000000001
lthumb 0.5624123149687803 32.71961098529837
rclavicle 3.0728743657241976e-16 -4.3064985682852227e-16
rhumerus -53.68696501249389 6.2097595427573085 -96.0668713327444
rradius 103.60695759864822
rwrist -19.32206423528268
rhand -18.497075087162056 37.480161333165526
rfingers 7.125020000000001
rthumb 7.9107912584347035 7.530458697309143
125
root 0.5905594446882325 17.78075389615395 40.95643021626579 1.9386795126872758 1.021938341522429 0.33526157588542516
lfemur -11.849480702396814 1.3994928363719428 -20.407578706879505
ltibia 65.6264946630948
lfoot 5.713847472720014 -10.553940666839576
ltoes -9.281168064052192
rfemur -23.036943329139614 3.5980293295317844 28.05809478542218
rtibia 52.694907822501136
rfoot -1.3930823162810113 -4.283315344044257
rtoes -4.1065955928546005
lowerback 13.107729534070177 -0.5131543668612794 0.10626250965480155
upperback -0.5810201148938902 0.18811719393699677 1.8256886554229104
thorax -8.248846248779097 0.5966890191755766 1.520206652813392
lowerneck -18.988727273547116 -3.6776739364375555 -2.325713384251125
upperneck 14.03807152765798 -4.821133856267387 2.62556842920662
head 7.496343752297822 -2.2032241664084355 0.7620508274556336
lclavicle 3.0724827264545893e-16 -4.3067221206564905e-16
lhumerus -43.852052700756566 -14.237876100071771 98.61252202256988
lradius 109.82202098543918
lwrist 32.27984527623766
lhand -25.630984459743477 3.163157903045089
lfingers 7.125020000000001
lthumb 0.5943488442089202 32.72665663732555
rclavicle 3.0728743657241976e-16 -4.3064985682852227e-16
rhumerus -53.296909419335805 6.119021868853301 -95.92968381312494
rradius 103.71320279518015
rwrist -19.441336504306825
rhand -18.481521071393104 37.50853397184659
rfingers 7.125020000000001
rthumb 7.9545734543889575 7.552372745108133
126
root 0.5813544081716764 17.743079968746244 40.98786514647916 1.8397255585801264 0.9487411246210173 0.3536071849302298
lfemur -13.535749802154193 1.352962186485537 -20.300725297650086
ltibia 66.75446747327217
lfoot 6.857894135831573 -11.084227972331272
ltoes -9.298775316124555
rfemur -21.290700505708728 3.79509534496714 28.392123752585483
rtibia 52.66975978147305
rfoot -2.5839659063041664 -4.866401149966473
rtoes -4.139691134876364
lowerback 13.244301909993489 -0.396321665163304 0.324423051863443
upperback -0.5684165692948793 0.3127930039262856 1.8377842651461909
thorax -8.225489324326222 0.7163431567061911 1.5448635516051896
lowerneck -18.994388212945598 -3.718959751017379 -2.2699641668160835
upperneck 14.009087045873606 -4.832403435867159 2.6694260927185365
head 7.480376439169435 -2.2252096632341734 0.7528174046029087
lclavicle 3.0724827264545893e-16 -4.3067221206564905e-16
lhumerus -45.02696523976119 -14.503000038375033 98.5285401470683
lradius 109.32963310482985
lwrist 32.15662156669093
lhand -25.629043837629755 3.2005072053107178
lfingers 7.125020000000001
lthumb 0.6838077093057959 32.81739254109284
rclavicle 3.0728743657241976e-16 -4.3064985682852227e-16
rhumerus -52.75888176419873 6.045875792671559 -95.80397094757915
rradius 103.89600692329479
rwrist -19.502110370935856
rhand -18.510123969003637 37.473290402179984
rfingers 7.125020000000001
rthumb 7.90037691065952 7.493558740278075
127
root 0.5795491889605133 17.728638286823248 41.78976056257732 1.8756993660864467 1.0597192675965514 0.40655424751225366
lfemur -13.996451356701254 1.5476194727721175 -20.05653100499742
ltibia 67.31587656519262
lfoot 5.5652528741034075 -11.510208426148452
ltoes -9.347912311189665
rfemur -22.564668069414868 3.739876864123003 28.182178848631363
rtibia 52.90340781765855
rfoot -3.81201720425717 -5.667591155032152
rtoes -4.233313974743478
lowerback 13.35570257801343 -0.2816489091775475 0.533243643745279
upperback -0.537048572404863 0.4801002955494992 1.847901336022761
thorax -8.26840271808567 0.7434546659869313 1.3016742691726235
lowerneck -19.014711151524697 -3.7913947379351063 -2.2351352088124985
upperneck 13.915545778957998 -4.868127770085222 2.6959143213365904
head 7.4673871859049825 -2.252337914783811 0.7404486228933786
lclavicle 3.0724827264545893e-16 -4.3067221206564905e-16
lhumerus -45.97425357237623 -14.709479964891932 98.58612478364901
lradius 109.41652151042773
lwrist 32.221062342351765
lhand -25.636092089742448 3.2392870869367765
lfingers 7.125020000000001
lthumb 0.6778133296143779 32.80031328390057
rclavicle 3.0728743657241976e-16 -4.3064985682852227e-16
rhumerus -52.15853974519311 5.985311004267523 -95.7096459561077
rradius 104.12145102198582
rwrist -19.458148945409775
rhand -18.472743433936625 37.49309362489655
rfingers 7.125020000000001
rthumb 7.9428623985743485 7.531283600331084
